<svg xmlns="http://www.w3.org/2000/svg" xmlns:xlink="http://www.w3.org/1999/xlink" width="500" zoomAndPan="magnify" viewBox="0 0 375 374.999991" height="500" preserveAspectRatio="xMidYMid meet" version="1.0"><defs><g/><clipPath id="5f48825220"><path d="M 32 122.160156 L 109 122.160156 L 109 226 L 32 226 Z M 32 122.160156 " clip-rule="nonzero"/></clipPath></defs><g fill="#292929" fill-opacity="1"><g transform="translate(86.83297, 225.696331)"><g/></g></g><g fill="#292929" fill-opacity="1"><g transform="translate(106.349316, 225.696331)"><g><path d="M 5.328125 -2.09375 L 5.46875 -3.453125 L 5.1875 -13.6875 L 5.46875 -15.046875 L 5.25 -46.796875 L 5.40625 -48.3125 L 6.1875 -49.75 L 7.625 -50.546875 L 9.71875 -49.96875 L 11.8125 -48.453125 L 13.390625 -46.796875 L 14.1875 -45.796875 L 15.1875 -44.859375 L 15.984375 -43.78125 L 16.921875 -42.765625 L 18.140625 -41.6875 L 19.875 -39.53125 L 24.84375 -34.421875 L 25.703125 -33.265625 L 26.859375 -32.328125 L 27.71875 -31.109375 L 28.65625 -30.171875 L 29.953125 -29.734375 L 31.53125 -30.234375 L 42.1875 -41.546875 L 42.84375 -42.625 L 46.9375 -46.875 L 48.59375 -48.890625 L 50.40625 -49.890625 L 52.5625 -50.546875 L 54 -49.6875 L 54.796875 -48.3125 L 54.71875 -46.796875 L 54.859375 -45.578125 L 54.71875 -44.0625 L 54.9375 -23.6875 L 54.71875 -22.390625 L 54.859375 -20.953125 L 54.71875 -19.4375 L 54.796875 -18 L 54.578125 -16.5625 L 54.71875 -13.75 L 54.578125 -12.390625 L 54.859375 -3.75 L 54.640625 -2.296875 L 53.859375 -0.796875 L 52.484375 0.078125 L 43.84375 0 L 42.265625 -0.578125 L 41.546875 -2.09375 L 41.765625 -12.03125 L 41.546875 -14.6875 L 41.609375 -16.125 L 41.546875 -17.421875 L 41.765625 -18.796875 L 41.546875 -20.234375 L 40.96875 -21.09375 L 40.109375 -20.953125 L 39.09375 -19.9375 L 38.15625 -18.71875 L 32.109375 -12.59375 L 30.890625 -11.734375 L 29.234375 -11.734375 L 26.859375 -13.6875 L 25.921875 -14.90625 L 21.890625 -18.71875 L 20.09375 -20.953125 L 19.015625 -21.234375 L 18.359375 -20.234375 L 18.640625 -16.0625 L 18.4375 -6.34375 L 18.640625 -4.828125 L 18.71875 -3.3125 L 18.578125 -1.9375 L 17.78125 -0.796875 L 15.625 -0.140625 L 7.703125 0 L 5.96875 -0.796875 Z M 5.328125 -2.09375 "/></g></g></g><g fill="#292929" fill-opacity="1"><g transform="translate(166.534076, 225.696331)"><g><path d="M 0.9375 -1.9375 L 1.796875 -4.96875 L 2.453125 -6.40625 L 3.3125 -7.5625 L 5.40625 -12.8125 L 7.421875 -16.5625 L 7.921875 -18 L 8.5625 -19.15625 L 9 -20.65625 L 10.015625 -22.53125 L 10.515625 -23.90625 L 11.59375 -25.78125 L 12.75 -28.375 L 13.53125 -29.65625 L 13.890625 -30.890625 L 17.921875 -39.953125 L 18.71875 -41.25 L 21.8125 -47.734375 L 22.25 -49.03125 L 23.609375 -50.328125 L 25.921875 -51.046875 L 28.375 -50.40625 L 29.65625 -49.03125 L 30.09375 -47.65625 L 30.75 -46.578125 L 31.890625 -43.84375 L 33.34375 -41.1875 L 34.421875 -38.65625 L 34.78125 -37.515625 L 36.078125 -34.78125 L 36.5 -33.40625 L 37.9375 -30.890625 L 38.296875 -29.515625 L 39.03125 -28.296875 L 39.59375 -27.078125 L 40.390625 -25.78125 L 40.828125 -24.34375 L 41.46875 -23.25 L 41.96875 -21.8125 L 42.625 -20.59375 L 43.203125 -19.15625 L 43.984375 -18 L 45 -15.34375 L 45.71875 -14.109375 L 46.21875 -12.75 L 47.453125 -10.15625 L 47.875 -8.78125 L 48.59375 -7.703125 L 49.03125 -6.265625 L 49.96875 -5.046875 L 50.46875 -3.75 L 50.90625 -1.9375 L 50.609375 -0.4375 L 49.3125 0 L 44.859375 0.140625 L 42.34375 -0.078125 L 41.046875 0.078125 L 39.171875 -0.640625 L 37.9375 -1.796875 L 37.15625 -3.09375 L 36.796875 -4.390625 L 35.28125 -5.546875 L 32.90625 -6.34375 L 29.515625 -6.1875 L 28.015625 -6.34375 L 26.71875 -6.34375 L 25.0625 -6.125 L 23.546875 -6.34375 L 19.515625 -6.265625 L 18.078125 -6.40625 L 16.34375 -5.6875 L 15.125 -4.3125 L 13.890625 -1.875 L 12.59375 -0.578125 L 10.9375 0.140625 L 9.078125 -0.078125 L 2.734375 -0.078125 L 1.296875 -0.4375 Z M 23.1875 -17.78125 L 28.796875 -17.859375 L 30.03125 -18.4375 L 30.171875 -19.734375 L 29.65625 -21.03125 L 28.9375 -22.46875 L 28.65625 -23.609375 L 27.859375 -24.84375 L 26.921875 -27.640625 L 26.0625 -28.21875 L 25.125 -27.5 L 24.484375 -26.359375 L 21.59375 -19.796875 L 21.8125 -18.359375 Z M 23.1875 -17.78125 "/></g></g></g><g fill="#292929" fill-opacity="1"><g transform="translate(218.799781, 225.696331)"><g><path d="M 5.546875 -2.296875 L 5.328125 -7.921875 L 5.46875 -9.4375 L 5.1875 -13.609375 L 5.40625 -16.5625 L 5.1875 -18.140625 L 5.25 -20.875 L 5.40625 -22.390625 L 5.40625 -25.984375 L 5.1875 -28.078125 L 5.40625 -48.234375 L 5.96875 -49.75 L 7.34375 -50.40625 L 8.921875 -50.328125 L 10.296875 -50.546875 L 13.25 -50.25 L 14.609375 -50.46875 L 18.9375 -50.328125 L 20.15625 -50.46875 L 21.75 -50.328125 L 23.1875 -50.46875 L 24.765625 -50.40625 L 26.859375 -50.46875 L 28.65625 -50.328125 L 34.625 -49.109375 L 37.15625 -47.8125 L 40.75 -45.078125 L 41.40625 -43.984375 L 42.40625 -42.90625 L 44.359375 -38.953125 L 44.71875 -37.515625 L 44.921875 -36.140625 L 45.28125 -34.78125 L 45.21875 -29.09375 L 44.421875 -26.359375 L 43.921875 -25.125 L 43.125 -23.828125 L 42.625 -22.46875 L 41.765625 -21.234375 L 39.75 -19.296875 L 38.953125 -17.78125 L 39.171875 -16.0625 L 41.328125 -12.3125 L 42.265625 -11.15625 L 42.984375 -9.859375 L 43.84375 -8.5625 L 44.5 -7.34375 L 46.796875 -3.8125 L 47.734375 -2.015625 L 47.453125 -0.5 L 45.9375 -0.140625 L 44.359375 0 L 41.46875 0 L 40.03125 -0.140625 L 38.453125 0 L 35.859375 -0.140625 L 34.0625 -0.578125 L 32.609375 -1.875 L 31.75 -3.03125 L 31.109375 -4.25 L 30.171875 -5.609375 L 28.15625 -9.21875 L 27.640625 -10.578125 L 25.78125 -13.109375 L 24.625 -14.328125 L 22.828125 -14.90625 L 21.53125 -14.828125 L 20.234375 -14.828125 L 18.796875 -14.109375 L 18.140625 -12.671875 L 18.28125 -8.203125 L 18.078125 -5.109375 L 18.359375 -3.59375 L 18.21875 -2.09375 L 17.71875 -0.71875 L 15.484375 0 L 13.3125 0 L 11.8125 -0.140625 L 8.859375 0.078125 L 7.484375 0 L 6.046875 -0.71875 Z M 20.234375 -26.5 L 21.8125 -26.5 L 23.25 -26.28125 L 28.875 -26.78125 L 29.953125 -27.28125 L 30.8125 -28.15625 L 31.609375 -29.375 L 32.1875 -30.8125 L 32.40625 -32.765625 L 32.25 -34.84375 L 31.75 -36 L 31.03125 -37.078125 L 28.796875 -38.453125 L 25.484375 -38.875 L 21.53125 -38.953125 L 20.375 -38.875 L 18.9375 -38.15625 L 18.078125 -36.71875 L 18.28125 -28.65625 L 19.015625 -27.140625 Z M 20.234375 -26.5 "/></g></g></g><g fill="#292929" fill-opacity="1"><g transform="translate(96.79269, 174.185894)"><g><path d="M 5.4375 -2.234375 L 5.359375 -5.0625 L 5.65625 -9.53125 L 5.4375 -12.578125 L 5.578125 -18.6875 L 5.4375 -20.09375 L 5.4375 -23.078125 L 5.578125 -24.484375 L 5.359375 -26.046875 L 5.359375 -32 L 5.5 -33.421875 L 5.4375 -34.984375 L 5.578125 -36.390625 L 5.4375 -37.953125 L 5.65625 -39.515625 L 5.359375 -44.5 L 5.5 -46.65625 L 5.359375 -49.859375 L 6.03125 -51.421875 L 7.515625 -52.09375 L 29.921875 -51.953125 L 34.078125 -50.984375 L 36.84375 -49.484375 L 39.078125 -47.921875 L 40.109375 -46.890625 L 41.90625 -44.5 L 42.34375 -43.09375 L 43.09375 -41.671875 L 43.90625 -38.921875 L 43.984375 -36.765625 L 42.9375 -31.40625 L 42.046875 -30.140625 L 41.234375 -28.65625 L 40.9375 -27.15625 L 41.609375 -25.53125 L 42.71875 -24.40625 L 43.765625 -23.140625 L 45.09375 -20.546875 L 45.625 -18.984375 L 45.921875 -17.5625 L 45.84375 -11.609375 L 45.25 -10.125 L 44.953125 -8.859375 L 44.28125 -7.4375 L 42.5625 -4.984375 L 41.375 -3.875 L 40.40625 -3.125 L 37.578125 -1.484375 L 35.125 -0.515625 L 32.296875 -0.15625 L 7.671875 0.15625 L 6.25 -0.515625 Z M 20.6875 -31.921875 L 26.265625 -31.921875 L 28.796875 -32.453125 L 30.0625 -33.640625 L 30.4375 -35.875 L 30.21875 -37.875 L 29.25 -38.921875 L 28.359375 -39.515625 L 26.046875 -39.96875 L 20.6875 -40.1875 L 19.125 -39.375 L 18.3125 -38.109375 L 18.453125 -36.6875 L 18.453125 -35.28125 L 18.15625 -34.015625 L 18.90625 -32.515625 Z M 20.46875 -11.828125 L 26.265625 -11.765625 L 30.296875 -12.125 L 31.625 -12.953125 L 32.59375 -13.984375 L 32.75 -15.921875 L 32.59375 -18.015625 L 31.484375 -19.046875 L 30.359375 -19.875 L 28.28125 -20.25 L 20.390625 -20.25 L 18.90625 -19.5 L 18.375 -18.15625 L 18.3125 -16.671875 L 18.453125 -15.25 L 18.375 -13.984375 L 19.203125 -12.421875 Z M 20.46875 -11.828125 "/></g></g></g><g fill="#292929" fill-opacity="1"><g transform="translate(145.907433, 174.185894)"><g><path d="M 27.828125 0.890625 L 26.265625 0.75 L 23.59375 0.15625 L 21.953125 0 L 19.796875 -0.75 L 13.984375 -3.71875 L 11.53125 -5.65625 L 10.71875 -6.625 L 9.59375 -7.671875 L 8.640625 -8.859375 L 7.734375 -9.75 L 4.3125 -16.515625 L 3.640625 -19.34375 L 3.5 -20.765625 L 3.125 -22.109375 L 2.90625 -23.671875 L 3.125 -29.6875 L 4.390625 -35.421875 L 5.5 -38.25 L 7.8125 -42.203125 L 11.46875 -46.4375 L 13.984375 -48.296875 L 15.328125 -48.96875 L 16.453125 -49.78125 L 22.03125 -51.875 L 29.921875 -52.984375 L 31.921875 -52.90625 L 36.25 -52.171875 L 41.96875 -50.390625 L 43.09375 -49.5625 L 45.328125 -48.59375 L 47.03125 -47.40625 L 49.1875 -45.546875 L 51.28125 -43.234375 L 52.90625 -41 L 54.328125 -38.25 L 56.1875 -32.671875 L 56.703125 -29.625 L 56.9375 -25.90625 L 56.640625 -23.734375 L 56.5625 -22.171875 L 56.1875 -20.6875 L 56.109375 -19.34375 L 55.515625 -16.515625 L 54.40625 -13.6875 L 51.125 -8.703125 L 50.078125 -7.671875 L 49.125 -6.328125 L 47.03125 -4.546875 L 45.625 -3.875 L 44.5 -2.984375 L 42.046875 -1.640625 L 36.46875 0.21875 L 32 0.8125 Z M 32 -12.28125 L 33.484375 -12.578125 L 34.609375 -13.09375 L 35.953125 -13.46875 L 39.515625 -15.921875 L 40.5625 -17.109375 L 41 -18.234375 L 41.828125 -19.578125 L 42.34375 -20.90625 L 42.9375 -23.671875 L 43.09375 -28.203125 L 42.859375 -29.546875 L 42.203125 -30.953125 L 41.296875 -33.78125 L 38.40625 -36.84375 L 36.09375 -38.46875 L 34.75 -39.078125 L 33.421875 -39.375 L 29.84375 -39.8125 L 27.765625 -39.671875 L 24.859375 -38.921875 L 23.890625 -38.546875 L 20.171875 -36.015625 L 18.375 -33.640625 L 17.9375 -32.296875 L 17.34375 -30.953125 L 17.109375 -29.546875 L 16.75 -28.203125 L 16.75 -23.671875 L 17.34375 -20.90625 L 18.015625 -19.578125 L 18.375 -18.375 L 19.421875 -16.96875 L 20.390625 -15.921875 L 22.40625 -14.28125 L 23.59375 -13.625 L 26.265625 -12.5 L 27.90625 -12.28125 Z M 32 -12.28125 "/></g></g></g><g fill="#292929" fill-opacity="1"><g transform="translate(205.589287, 174.185894)"><g><path d="M 27.828125 0.890625 L 26.265625 0.75 L 23.59375 0.15625 L 21.953125 0 L 19.796875 -0.75 L 13.984375 -3.71875 L 11.53125 -5.65625 L 10.71875 -6.625 L 9.59375 -7.671875 L 8.640625 -8.859375 L 7.734375 -9.75 L 4.3125 -16.515625 L 3.640625 -19.34375 L 3.5 -20.765625 L 3.125 -22.109375 L 2.90625 -23.671875 L 3.125 -29.6875 L 4.390625 -35.421875 L 5.5 -38.25 L 7.8125 -42.203125 L 11.46875 -46.4375 L 13.984375 -48.296875 L 15.328125 -48.96875 L 16.453125 -49.78125 L 22.03125 -51.875 L 29.921875 -52.984375 L 31.921875 -52.90625 L 36.25 -52.171875 L 41.96875 -50.390625 L 43.09375 -49.5625 L 45.328125 -48.59375 L 47.03125 -47.40625 L 49.1875 -45.546875 L 51.28125 -43.234375 L 52.90625 -41 L 54.328125 -38.25 L 56.1875 -32.671875 L 56.703125 -29.625 L 56.9375 -25.90625 L 56.640625 -23.734375 L 56.5625 -22.171875 L 56.1875 -20.6875 L 56.109375 -19.34375 L 55.515625 -16.515625 L 54.40625 -13.6875 L 51.125 -8.703125 L 50.078125 -7.671875 L 49.125 -6.328125 L 47.03125 -4.546875 L 45.625 -3.875 L 44.5 -2.984375 L 42.046875 -1.640625 L 36.46875 0.21875 L 32 0.8125 Z M 32 -12.28125 L 33.484375 -12.578125 L 34.609375 -13.09375 L 35.953125 -13.46875 L 39.515625 -15.921875 L 40.5625 -17.109375 L 41 -18.234375 L 41.828125 -19.578125 L 42.34375 -20.90625 L 42.9375 -23.671875 L 43.09375 -28.203125 L 42.859375 -29.546875 L 42.203125 -30.953125 L 41.296875 -33.78125 L 38.40625 -36.84375 L 36.09375 -38.46875 L 34.75 -39.078125 L 33.421875 -39.375 L 29.84375 -39.8125 L 27.765625 -39.671875 L 24.859375 -38.921875 L 23.890625 -38.546875 L 20.171875 -36.015625 L 18.375 -33.640625 L 17.9375 -32.296875 L 17.34375 -30.953125 L 17.109375 -29.546875 L 16.75 -28.203125 L 16.75 -23.671875 L 17.34375 -20.90625 L 18.015625 -19.578125 L 18.375 -18.375 L 19.421875 -16.96875 L 20.390625 -15.921875 L 22.40625 -14.28125 L 23.59375 -13.625 L 26.265625 -12.5 L 27.90625 -12.28125 Z M 32 -12.28125 "/></g></g></g><g fill="#292929" fill-opacity="1"><g transform="translate(263.603461, 224.202941)"><g><path d="M 12.640625 0.359375 L 10.453125 -1.09375 L 9.234375 -4.859375 L 8.984375 -11.0625 L 9.234375 -13.484375 L 8.984375 -16.03125 L 9.109375 -17.984375 L 8.875 -22.96875 L 9.234375 -27.9375 L 8.984375 -30.125 L 9.109375 -34.875 L 8.75 -37.546875 L 9.234375 -42.53125 L 8.875 -44.59375 L 9.109375 -59.53125 L 8.75 -61.96875 L 9.109375 -64.390625 L 8.875 -79.21875 L 9.109375 -81.28125 L 10.203125 -83.59375 L 12.640625 -85.171875 L 15.3125 -85.296875 L 17.734375 -85.046875 L 20.046875 -85.171875 L 26.125 -84.5625 L 29.640625 -83.46875 L 31.21875 -81.53125 L 30.984375 -76.546875 L 31.109375 -72.78125 L 30.859375 -69.859375 L 31.109375 -67.671875 L 31.21875 -58.921875 L 31.109375 -56.625 L 31.71875 -54.0625 L 33.78125 -52.609375 L 36.453125 -52.609375 L 38.875 -53.34375 L 41.546875 -53.703125 L 43.734375 -54.671875 L 48 -57.71875 L 50.78125 -61.59375 L 51.515625 -64.15625 L 52.25 -65.96875 L 53.21875 -73.875 L 53.09375 -76.296875 L 53.453125 -78.609375 L 53.453125 -81.28125 L 54.4375 -83.59375 L 56.984375 -85.046875 L 60.625 -85.171875 L 64.28125 -84.6875 L 68.28125 -85.171875 L 71.921875 -84.8125 L 74.59375 -83.71875 L 75.6875 -81.28125 L 75.328125 -73.75 L 75.578125 -71.328125 L 74.71875 -63.546875 L 72.65625 -56.5 L 71.8125 -54.3125 L 69.984375 -51.15625 L 66.09375 -46.171875 L 62.328125 -43.015625 L 60.75 -40.453125 L 61.234375 -37.671875 L 65.25 -31.21875 L 66.21875 -29.15625 L 67.546875 -26.84375 L 68.890625 -25.15625 L 72.65625 -18.953125 L 74.234375 -17.015625 L 81.765625 -3.28125 L 81.15625 -0.609375 L 78.609375 0 L 76.1875 -0.125 L 74 0.125 L 61.71875 0.25 L 58.921875 -0.96875 L 56.625 -3.28125 L 55.40625 -4.859375 L 54.1875 -7.171875 L 52.734375 -8.984375 L 50.421875 -13.484375 L 49.328125 -15.1875 L 48.484375 -17.25 L 43.5 -25.390625 L 42.640625 -27.9375 L 41.4375 -29.890625 L 38.640625 -31.953125 L 35.359375 -32.203125 L 32.3125 -30.859375 L 30.984375 -28.796875 L 31.34375 -16.03125 L 30.984375 -13.484375 L 31.21875 -3.765625 L 29.890625 -1.09375 L 27.453125 -0.125 L 23.578125 0.25 L 20.171875 0 Z M 12.640625 0.359375 "/></g></g></g><g clip-path="url(#5f48825220)"><path fill="#292929" d="M 104.058594 225.632812 C 103.441406 225.632812 102.851562 225.507812 102.285156 225.261719 C 101.714844 225.015625 101.222656 224.667969 100.796875 224.214844 L 70.320312 191.894531 L 39.839844 224.214844 C 39.53125 224.542969 39.179688 224.816406 38.789062 225.035156 C 38.398438 225.257812 37.984375 225.414062 37.542969 225.511719 C 37.105469 225.609375 36.664062 225.636719 36.214844 225.601562 C 35.769531 225.566406 35.335938 225.464844 34.917969 225.300781 C 34.5 225.132812 34.117188 224.910156 33.765625 224.628906 C 33.414062 224.347656 33.113281 224.023438 32.859375 223.652344 C 32.609375 223.28125 32.414062 222.878906 32.28125 222.453125 C 32.148438 222.023438 32.082031 221.582031 32.078125 221.136719 L 32.078125 126.660156 C 32.078125 126.363281 32.109375 126.074219 32.167969 125.78125 C 32.222656 125.492188 32.308594 125.210938 32.421875 124.9375 C 32.535156 124.664062 32.671875 124.40625 32.835938 124.160156 C 33 123.914062 33.1875 123.6875 33.398438 123.480469 C 33.605469 123.269531 33.832031 123.082031 34.078125 122.917969 C 34.324219 122.753906 34.582031 122.617188 34.855469 122.503906 C 35.128906 122.390625 35.410156 122.304688 35.699219 122.25 C 35.992188 122.191406 36.28125 122.160156 36.578125 122.160156 L 104.058594 122.160156 C 104.355469 122.160156 104.648438 122.191406 104.9375 122.25 C 105.226562 122.304688 105.507812 122.390625 105.78125 122.503906 C 106.054688 122.617188 106.3125 122.753906 106.558594 122.917969 C 106.804688 123.082031 107.03125 123.269531 107.242188 123.480469 C 107.449219 123.6875 107.636719 123.914062 107.800781 124.160156 C 107.964844 124.40625 108.101562 124.664062 108.214844 124.9375 C 108.328125 125.210938 108.414062 125.492188 108.472656 125.78125 C 108.53125 126.074219 108.558594 126.363281 108.558594 126.660156 L 108.558594 221.136719 C 108.558594 221.429688 108.53125 221.722656 108.472656 222.011719 C 108.414062 222.300781 108.328125 222.582031 108.214844 222.855469 C 108.101562 223.128906 107.964844 223.386719 107.800781 223.632812 C 107.636719 223.878906 107.449219 224.105469 107.242188 224.316406 C 107.03125 224.523438 106.804688 224.710938 106.558594 224.875 C 106.3125 225.039062 106.054688 225.179688 105.78125 225.292969 C 105.507812 225.402344 105.226562 225.488281 104.9375 225.546875 C 104.648438 225.605469 104.355469 225.632812 104.058594 225.632812 Z M 70.320312 180.9375 C 70.9375 180.941406 71.53125 181.066406 72.097656 181.3125 C 72.664062 181.558594 73.15625 181.90625 73.582031 182.355469 L 99.5625 209.886719 L 99.5625 131.160156 L 41.078125 131.160156 L 41.078125 209.886719 L 67.058594 182.332031 C 67.484375 181.886719 67.980469 181.542969 68.546875 181.300781 C 69.113281 181.058594 69.703125 180.9375 70.320312 180.9375 Z M 70.320312 180.9375 " fill-opacity="1" fill-rule="nonzero"/></g></svg>